<?xml version="1.0" encoding="utf-8"?>
<!-- Generator: Adobe Illustrator 15.1.0, SVG Export Plug-In . SVG Version: 6.00 Build 0)  -->
<!DOCTYPE svg PUBLIC "-//W3C//DTD SVG 1.1//EN" "http://www.w3.org/Graphics/SVG/1.1/DTD/svg11.dtd">
<svg version="1.1" id="Layer_1" xmlns="http://www.w3.org/2000/svg" xmlns:xlink="http://www.w3.org/1999/xlink" x="0px" y="0px"
	 width="312px" height="81px" viewBox="0 0 312 81" enable-background="new 0 0 312 81" xml:space="preserve">
<path fill="#FFFFFF" d="M14.592,55.823v4.38H8.128V21.208h6.464V36.7c2.083-2.938,5.021-5.288,9.615-5.288
	c6.625,0,13.088,5.234,13.088,14.636v0.106c0,9.35-6.411,14.639-13.088,14.639C19.506,60.792,16.568,58.441,14.592,55.823
	 M30.725,46.154v-0.107c0-5.447-3.687-9.027-8.066-9.027c-4.381,0-8.227,3.633-8.227,9.027v0.107c0,5.395,3.846,9.027,8.227,9.027
	C27.091,55.184,30.725,51.71,30.725,46.154 M39.326,21.208h6.463v38.995h-6.463V21.208z M46.538,31.999h6.944l7.584,20.728
	l7.64-20.728h6.784L63.952,60.417H58.13L46.538,31.999z M73.194,46.154v-0.107c0-9.348,6.355-14.636,13.088-14.636
	c4.646,0,7.585,2.296,9.615,4.968V21.208h6.464v38.995h-6.464v-4.7c-2.083,2.937-5.021,5.289-9.615,5.289
	C79.658,60.792,73.194,55.503,73.194,46.154 M96.004,46.154v-0.107c0-5.447-3.846-9.027-8.173-9.027c-4.433,0-8.12,3.418-8.12,9.027
	v0.107c0,5.449,3.74,9.027,8.12,9.027C92.158,55.184,96.004,51.549,96.004,46.154 M106.909,54.238v5.848h-2.605V21.275h2.605v17.757
	c2.339-3.562,5.794-6.699,11.164-6.699c6.54,0,13.185,5.265,13.185,14.089v0.105c0,8.826-6.646,14.195-13.185,14.195
	C112.65,60.725,109.141,57.641,106.909,54.238 M128.44,46.635v-0.105c0-7.124-4.944-11.696-10.634-11.696
	c-5.635,0-11.058,4.731-11.058,11.644v0.105c0,6.964,5.423,11.645,11.058,11.645C123.708,58.227,128.44,53.918,128.44,46.635
	 M136.626,32.973h2.605v7.709c2.126-4.839,6.646-8.348,12.015-8.135v2.871h-0.266c-6.273,0-11.749,4.73-11.749,13.557v11.11h-2.605
	V32.973L136.626,32.973z M151.565,52.217v-0.105c0-5.637,4.838-8.825,11.855-8.825c3.773,0,6.379,0.479,8.985,1.169v-1.169
	c0-5.476-3.352-8.293-8.933-8.293c-3.297,0-6.008,0.903-8.507,2.18l-0.958-2.286c2.979-1.382,5.902-2.339,9.624-2.339
	c3.668,0,6.592,1.011,8.56,2.978c1.808,1.807,2.766,4.306,2.766,7.654v16.906h-2.552v-4.52c-1.861,2.605-5.211,5.158-10.367,5.158
	C156.988,60.725,151.565,57.854,151.565,52.217 M172.459,49.932V46.85c-2.286-0.586-5.317-1.224-9.198-1.224
	c-5.741,0-8.931,2.551-8.931,6.327v0.105c0,3.935,3.722,6.221,7.868,6.221C167.727,58.277,172.459,54.876,172.459,49.932
	 M181.549,32.973h2.605v5.051c1.807-3.19,4.838-5.688,9.781-5.688c6.858,0,10.846,4.679,10.846,11.165v16.587h-2.604V43.979
	c0-5.582-3.137-9.25-8.612-9.25c-5.316,0-9.41,4.039-9.41,9.674v15.685h-2.604L181.549,32.973L181.549,32.973z M209.619,46.635
	v-0.105c0-8.825,6.646-14.195,13.185-14.195c5.422,0,8.933,3.084,11.164,6.486V21.275h2.604v38.811h-2.604v-6.061
	c-2.339,3.562-5.796,6.699-11.164,6.699C216.265,60.725,209.619,55.46,209.619,46.635 M234.127,46.582v-0.105
	c0-6.965-5.423-11.644-11.059-11.644c-5.9,0-10.633,4.306-10.633,11.59v0.106c0,7.123,4.943,11.697,10.633,11.697
	C228.704,58.227,234.127,53.493,234.127,46.582 M241.357,56.684l1.541-2.072c2.978,2.285,6.272,3.562,9.729,3.562
	c3.67,0,6.54-2.021,6.54-5.157V52.91c0-3.189-3.402-4.359-7.178-5.424c-4.412-1.274-9.304-2.604-9.304-7.442v-0.106
	c0-4.358,3.668-7.496,8.933-7.496c3.242,0,6.911,1.17,9.622,2.977l-1.383,2.18c-2.498-1.647-5.477-2.712-8.348-2.712
	c-3.721,0-6.167,2.021-6.167,4.732v0.106c0,3.029,3.669,4.146,7.549,5.262c4.36,1.225,8.933,2.818,8.933,7.604v0.105
	c0,4.838-4.146,7.922-9.357,7.922C248.534,60.618,244.229,59.021,241.357,56.684 M250.52,14.499l5.372,10.245l33.981,40.281
	l-5.842,1.779l21.244,6.123L250.52,14.499z M308.128,69.004l-4.402-8.915L267.82,16.71l3.852-1.546l-19.707-6.092L308.128,69.004z"
	/>
</svg>
