<?xml version="1.0" encoding="utf-8"?>
<!-- Generator: Adobe Illustrator 14.0.0, SVG Export Plug-In . SVG Version: 6.00 Build 43363)  -->
<!DOCTYPE svg PUBLIC "-//W3C//DTD SVG 1.1//EN" "http://www.w3.org/Graphics/SVG/1.1/DTD/svg11.dtd">
<svg version="1.1" id="Layer_1" xmlns="http://www.w3.org/2000/svg" xmlns:xlink="http://www.w3.org/1999/xlink" x="0px" y="0px"
	 width="312px" height="81px" viewBox="239.5 241.5 312 81" enable-background="new 239.5 241.5 312 81" xml:space="preserve">
<path fill="#999999" d="M251.592,294.823v4.38h-6.464v-38.995h6.464V275.7c2.083-2.938,5.021-5.288,9.615-5.288
	c6.625,0,13.088,5.235,13.088,14.636v0.107c0,9.349-6.411,14.638-13.088,14.638C256.506,299.792,253.568,297.441,251.592,294.823
	 M267.724,285.154v-0.107c0-5.448-3.686-9.027-8.066-9.027c-4.38,0-8.227,3.632-8.227,9.027v0.107c0,5.395,3.846,9.028,8.227,9.028
	C264.091,294.183,267.724,290.71,267.724,285.154 M276.326,260.208h6.463v38.995h-6.463V260.208z M283.538,270.999h6.944
	l7.585,20.727l7.639-20.727h6.784l-11.538,28.418h-5.822L283.538,270.999z M310.194,285.154v-0.107
	c0-9.348,6.356-14.636,13.088-14.636c4.647,0,7.585,2.296,9.615,4.968v-15.171h6.464v38.995h-6.464v-4.7
	c-2.083,2.937-5.021,5.289-9.615,5.289C316.658,299.792,310.194,294.503,310.194,285.154 M333.004,285.154v-0.107
	c0-5.448-3.846-9.027-8.173-9.027c-4.433,0-8.12,3.418-8.12,9.027v0.107c0,5.449,3.74,9.028,8.12,9.028
	C329.158,294.183,333.004,290.549,333.004,285.154 M343.909,293.238v5.848h-2.605v-38.81h2.605v17.756
	c2.339-3.562,5.794-6.699,11.164-6.699c6.54,0,13.185,5.264,13.185,14.089v0.106c0,8.825-6.646,14.194-13.185,14.194
	C349.65,299.724,346.141,296.641,343.909,293.238 M365.44,285.635v-0.106c0-7.124-4.944-11.696-10.633-11.696
	c-5.635,0-11.058,4.732-11.058,11.643v0.106c0,6.964,5.423,11.644,11.058,11.644C360.708,297.226,365.44,292.918,365.44,285.635
	 M373.626,271.972h2.605v7.709c2.126-4.838,6.646-8.347,12.015-8.134v2.871h-0.266c-6.273,0-11.749,4.731-11.749,13.556v11.111
	h-2.605V271.972z M388.565,291.217v-0.106c0-5.636,4.838-8.825,11.856-8.825c3.773,0,6.379,0.479,8.985,1.169v-1.169
	c0-5.476-3.351-8.293-8.932-8.293c-3.297,0-6.008,0.904-8.507,2.18l-0.958-2.286c2.978-1.382,5.902-2.339,9.624-2.339
	c3.668,0,6.592,1.01,8.559,2.977c1.808,1.807,2.766,4.306,2.766,7.655v16.906h-2.552v-4.519c-1.861,2.605-5.211,5.157-10.367,5.157
	C393.988,299.724,388.565,296.853,388.565,291.217 M409.459,288.932v-3.083c-2.286-0.585-5.317-1.223-9.198-1.223
	c-5.741,0-8.931,2.551-8.931,6.327v0.106c0,3.934,3.722,6.22,7.868,6.22C404.727,297.278,409.459,293.876,409.459,288.932
	 M418.549,271.972h2.605v5.051c1.807-3.19,4.838-5.688,9.782-5.688c6.858,0,10.845,4.679,10.845,11.165v16.587h-2.604v-16.108
	c0-5.583-3.137-9.251-8.613-9.251c-5.316,0-9.41,4.04-9.41,9.675v15.684h-2.604V271.972L418.549,271.972z M446.619,285.635v-0.106
	c0-8.825,6.646-14.195,13.185-14.195c5.422,0,8.932,3.084,11.164,6.486v-17.544h2.604v38.81h-2.604v-6.061
	c-2.339,3.562-5.796,6.699-11.164,6.699C453.265,299.724,446.619,294.46,446.619,285.635 M471.127,285.582v-0.106
	c0-6.964-5.423-11.643-11.059-11.643c-5.9,0-10.632,4.306-10.632,11.59v0.106c0,7.124,4.943,11.697,10.632,11.697
	C465.704,297.226,471.127,292.493,471.127,285.582 M478.357,295.684l1.541-2.073c2.978,2.286,6.273,3.562,9.729,3.562
	c3.67,0,6.54-2.021,6.54-5.157v-0.106c0-3.19-3.402-4.359-7.178-5.423c-4.412-1.275-9.303-2.605-9.303-7.443v-0.107
	c0-4.358,3.668-7.496,8.932-7.496c3.242,0,6.911,1.17,9.622,2.977l-1.383,2.18c-2.498-1.648-5.476-2.712-8.347-2.712
	c-3.721,0-6.167,2.021-6.167,4.732v0.106c0,3.03,3.669,4.146,7.549,5.263c4.36,1.224,8.932,2.818,8.932,7.603v0.106
	c0,4.837-4.146,7.921-9.357,7.921C485.534,299.618,481.229,298.022,478.357,295.684 M487.52,253.499l5.372,10.245l33.981,40.281
	l-5.842,1.78l21.244,6.123L487.52,253.499z M545.128,308.004l-4.402-8.915L504.82,255.71l3.852-1.546l-19.707-6.092L545.128,308.004
	z"/>
</svg>
