<?xml version="1.0" encoding="utf-8"?>
<!-- Generator: Adobe Illustrator 15.1.0, SVG Export Plug-In . SVG Version: 6.00 Build 0)  -->
<!DOCTYPE svg PUBLIC "-//W3C//DTD SVG 1.1//EN" "http://www.w3.org/Graphics/SVG/1.1/DTD/svg11.dtd">
<svg version="1.1" id="Layer_1" xmlns="http://www.w3.org/2000/svg" xmlns:xlink="http://www.w3.org/1999/xlink" x="0px" y="0px"
	 width="52.152px" height="51.755px" viewBox="223.679 223.977 52.152 51.755"
	 enable-background="new 223.679 223.977 52.152 51.755" xml:space="preserve">
<path fill="#FFFFFF" d="M250.001,225c-8.906,0-17.833,1.594-21.073,4.771c-2.688,2.635-3.583,7.292-3.886,10.24
	c0,0-0.042,0.291-0.042,0.417c0,1.156,0.937,2.083,2.083,2.083c0.136,0,5.146-0.406,8.167-0.656c0.072-0.01,0.146-0.021,0.218-0.042
	c1.125-0.031,2.032-0.948,2.032-2.083l0.01-4.104c0-1.271,1.032-2.292,2.303-2.292h20.375c1.271,0,2.303,1.021,2.303,2.292
	l0.011,4.104c0,1.135,0.906,2.052,2.031,2.083c0.072,0.021,0.146,0.031,0.219,0.042c3.021,0.25,8.031,0.656,8.166,0.656
	c1.146,0,2.084-0.927,2.084-2.083c0-0.125-0.042-0.417-0.042-0.417c-0.303-2.948-1.197-7.604-3.885-10.24
	C267.835,226.594,258.907,225,250.001,225z M250.001,252.083c-2.302,0-4.167,1.865-4.167,4.167s1.865,4.167,4.167,4.167
	s4.167-1.865,4.167-4.167S252.304,252.083,250.001,252.083z M246.876,242.708v-2.604c0-1.437-1.167-2.604-2.604-2.604
	c-1.438,0-2.604,1.167-2.604,2.604v2.604l-14.052,15.011c-0.969,0.948-1.573,2.271-1.573,3.729v4.177
	c0,2.303,1.865,4.167,4.167,4.167h1.042v2.604c0,1.437,1.167,2.604,2.604,2.604c1.437,0,2.604-1.167,2.604-2.604v-2.604h27.083
	v2.604c0,1.437,1.167,2.604,2.604,2.604s2.604-1.167,2.604-2.604v-2.604h1.042c2.302,0,4.167-1.864,4.167-4.167v-4.177
	c0-1.459-0.604-2.781-1.573-3.729l-14.052-15.011v-2.604c0-1.437-1.167-2.604-2.604-2.604s-2.604,1.167-2.604,2.604v2.604H246.876z
	 M250.001,247.917c4.604,0,8.333,3.729,8.333,8.333s-3.729,8.334-8.333,8.334c-4.604,0-8.333-3.729-8.333-8.334
	S245.397,247.917,250.001,247.917z"/>
</svg>
