<?xml version="1.0" encoding="utf-8"?>
<!-- Generator: Adobe Illustrator 15.1.0, SVG Export Plug-In . SVG Version: 6.00 Build 0)  -->
<!DOCTYPE svg PUBLIC "-//W3C//DTD SVG 1.1//EN" "http://www.w3.org/Graphics/SVG/1.1/DTD/svg11.dtd">
<svg version="1.1" id="Layer_1" xmlns="http://www.w3.org/2000/svg" xmlns:xlink="http://www.w3.org/1999/xlink" x="0px" y="0px"
	 width="56.693px" height="56.693px" viewBox="0 0 56.693 56.693" enable-background="new 0 0 56.693 56.693" xml:space="preserve">
<g>
	<path fill="#FFFFFF" d="M25.769,14.924c-0.398-0.397-0.96-0.581-1.519-0.488c-0.554,0.093-1.031,0.444-1.28,0.947L10.208,41.19
		L7.83,43.567l-3.372,2.235c-0.438,0.289-0.721,0.763-0.772,1.281c-0.053,0.521,0.133,1.037,0.502,1.408l5.459,5.459
		c0.33,0.326,0.774,0.51,1.233,0.51c0.06,0,0.117-0.002,0.175-0.008c0.521-0.053,0.989-0.336,1.28-0.771l2.271-3.425l2.158-2.155
		c0.062,0.092,0.135,0.18,0.216,0.262l5.615,5.615c0.326,0.328,0.761,0.508,1.225,0.508c0.463,0,0.896-0.18,1.222-0.504l0.81-0.81
		c0.674-0.676,0.672-1.772-0.002-2.444l-4.823-4.824l21.724-10.744c0.504-0.25,0.857-0.727,0.949-1.281
		c0.092-0.554-0.092-1.119-0.488-1.518L25.769,14.924z M10.831,51.272L6.909,47.35l3.197-1.804l2.525,2.527L10.831,51.272z"/>
	<path fill="#FFFFFF" d="M53.003,23.562c-0.912-5.157-3.116-9.502-6.396-12.78c-3.273-3.277-7.617-5.481-12.775-6.395
		c-0.608-0.107-1.391,0.375-1.748,1.064c-0.36,0.691-0.164,1.343,0.441,1.448l-0.006,0.005c4.84,0.854,8.896,2.926,11.967,5.995
		c3.072,3.074,5.147,7.132,5.998,11.97c0.104,0.604,0.756,0.804,1.457,0.439c0.188-0.104,0.363-0.232,0.51-0.379
		C52.849,24.534,53.077,24.001,53.003,23.562z"/>
	<path fill="#FFFFFF" d="M40.692,16.672c-1.935-1.934-4.334-3.4-7.121-4.284c-0.564-0.179-1.363,0.229-1.781,0.908
		c-0.424,0.673-0.311,1.371,0.254,1.551c2.547,0.812,4.756,2.158,6.537,3.938c1.787,1.79,3.137,4.021,3.965,6.594
		c0.181,0.561,0.879,0.673,1.558,0.248c0.141-0.088,0.27-0.189,0.383-0.304c0.438-0.441,0.668-1.037,0.525-1.486
		C44.103,21.048,42.638,18.619,40.692,16.672z"/>
</g>
</svg>
