<?xml version="1.0" encoding="utf-8"?>
<!-- Generator: Adobe Illustrator 15.1.0, SVG Export Plug-In . SVG Version: 6.00 Build 0)  -->
<!DOCTYPE svg PUBLIC "-//W3C//DTD SVG 1.1//EN" "http://www.w3.org/Graphics/SVG/1.1/DTD/svg11.dtd">
<svg version="1.1" id="Layer_1" xmlns="http://www.w3.org/2000/svg" xmlns:xlink="http://www.w3.org/1999/xlink" x="0px" y="0px"
	 width="51.019px" height="49.384px" viewBox="-10.452 -13.477 51.019 49.384"
	 enable-background="new -10.452 -13.477 51.019 49.384" xml:space="preserve">
<polygon fill="#FFFFFF" points="2.544,11.59 2.544,35.294 11.928,35.294 11.928,20.963 "/>
<path fill="#FFFFFF" d="M17.263,21.879c-0.61,0.61-1.41,0.915-2.21,0.915v12.5h9.375V14.715L17.263,21.879z"/>
<polygon fill="#FFFFFF" points="-9.956,24.088 -9.956,35.294 -0.581,35.294 -0.581,14.715 "/>
<path fill="#FFFFFF" d="M33.803,7.171V5.34l-6.25,6.25v23.704h9.375V10.296C35.201,10.296,33.803,8.898,33.803,7.171z"/>
<path fill="#FFFFFF" d="M39.943-10.3c-0.037-0.217-0.043-0.438-0.135-0.641c-0.311-0.766-0.921-1.375-1.69-1.69
	c-0.378-0.16-0.787-0.241-1.19-0.241h-9.375c-1.727,0-3.125,1.397-3.125,3.125c0,1.729,1.398,3.125,3.125,3.125h1.831L15.053,7.708
	L4.753-2.583C4.56-2.776,4.41-2.86,4.279-2.898c-1.216-0.83-2.862-0.765-3.944,0.316L-9.956,7.708v8.836l12.5-12.498l10.294,10.29
	c0.61,0.609,1.416,0.914,2.215,0.914c0.8,0,1.6-0.305,2.21-0.914l16.54-16.54v1.831c0,1.729,1.398,3.125,3.125,3.125
	c1.722,0,3.125-1.396,3.125-3.125v-9.375C40.053-10.017,40.011-10.178,39.943-10.3z"/>
</svg>
